<svg xmlns="http://www.w3.org/2000/svg" width="256" height="256" viewBox="0 0 256 256">
  <defs>
    <linearGradient id="g" x1="0" y1="0" x2="1" y2="1">
      <stop offset="0" stop-color="#39f3ff"/>
      <stop offset="1" stop-color="#19ff87"/>
    </linearGradient>
    <filter id="glow">
      <feGaussianBlur stdDeviation="4" result="blur"/>
      <feMerge>
        <feMergeNode in="blur"/>
        <feMergeNode in="SourceGraphic"/>
      </feMerge>
    </filter>
  </defs>

  <polygon points="128,18 205,62 128,106 51,62" fill="#172238" stroke="url(#g)" stroke-width="3"/>
  <polygon points="51,62 128,106 128,210 51,166" fill="#0d1426" stroke="#39f3ff" stroke-width="2"/>
  <polygon points="205,62 128,106 128,210 205,166" fill="#101b31" stroke="#19ff87" stroke-width="2"/>

  <polygon points="128,52 170,76 128,100 86,76" fill="#213456" stroke="#39f3ff" stroke-width="2"/>
  <polygon points="86,76 128,100 128,150 86,126" fill="#0a1020" stroke="#39f3ff" stroke-width="2"/>
  <polygon points="170,76 128,100 128,150 170,126" fill="#101b31" stroke="#19ff87" stroke-width="2"/>

  <rect x="112" y="118" width="32" height="50" fill="#08111f" stroke="#39f3ff" stroke-width="2"/>
  <rect x="64" y="104" width="26" height="18" fill="#19ff87" opacity="0.8" filter="url(#glow)"/>
  <rect x="166" y="104" width="26" height="18" fill="#39f3ff" opacity="0.8" filter="url(#glow)"/>

  <line x1="128" y1="18" x2="128" y2="4" stroke="#19ff87" stroke-width="4" filter="url(#glow)"/>
  <circle cx="128" cy="4" r="4" fill="#19ff87" filter="url(#glow)"/>
</svg>